<?xml version="1.0" encoding="UTF-8" standalone="no"?>
<svg
   width="24"
   height="24"
   viewBox="0 0 24 24"
   fill="none"
   stroke="currentColor"
   stroke-width="2"
   stroke-linecap="round"
   stroke-linejoin="round"
   version="1.1"
   id="svg4"
   sodipodi:docname="paperclip.svg"
   inkscape:version="1.1.1 (3bf5ae0d25, 2021-09-20)"
   xmlns:inkscape="http://www.inkscape.org/namespaces/inkscape"
   xmlns:sodipodi="http://sodipodi.sourceforge.net/DTD/sodipodi-0.dtd"
   xmlns="http://www.w3.org/2000/svg"
   xmlns:svg="http://www.w3.org/2000/svg">
  <defs
     id="defs8" />
  <sodipodi:namedview
     id="namedview6"
     pagecolor="#ffffff"
     bordercolor="#666666"
     borderopacity="1.0"
     inkscape:pageshadow="2"
     inkscape:pageopacity="0.0"
     inkscape:pagecheckerboard="0"
     showgrid="false"
     inkscape:zoom="26.25"
     inkscape:cx="12.019048"
     inkscape:cy="12"
     inkscape:window-width="1920"
     inkscape:window-height="992"
     inkscape:window-x="1600"
     inkscape:window-y="24"
     inkscape:window-maximized="1"
     inkscape:current-layer="svg4" />
  <path
     style="color:#000000;fill:#ffffff;stroke-width:0;stroke-miterlimit:4;stroke-dasharray:none"
     d="M 16.015625,0.32421875 C 14.737949,0.24906105 13.362296,0.73340705 12.242188,1.8535156 L 3.0527344,11.042969 c -1.5917746,1.591774 -2.25307446,3.496569 -2.14843752,5.27539 0.10463692,1.778822 0.93005392,3.410523 2.14843752,4.628907 1.2183835,1.218383 2.8500848,2.0438 4.6289062,2.148437 1.7788215,0.104637 3.6836164,-0.556663 5.2753904,-2.148437 l 9.189453,-9.189453 a 1,1 0 0 0 0,-1.414063 1,1 0 0 0 -1.414062,0 l -9.189453,9.189453 C 10.304747,20.771425 9.0268781,21.171848 7.7988281,21.099609 6.5707782,21.027371 5.3709112,20.437317 4.4667969,19.533203 3.5626826,18.629089 2.9726291,17.429222 2.9003906,16.201172 2.8281521,14.973122 3.2285755,13.695253 4.4667969,12.457031 L 13.65625,3.2675781 c 0.766555,-0.7665554 1.515283,-0.9900249 2.242188,-0.9472656 0.726904,0.042759 1.453541,0.3969009 2.003906,0.9472656 0.550364,0.5503647 0.904506,1.2770016 0.947265,2.0039063 0.04276,0.7269047 -0.18071,1.4756321 -0.947265,2.2421875 L 8.703125,16.703125 C 8.4082356,16.998014 8.1906032,17.04453 7.9648437,17.03125 7.7390843,17.01797 7.4837244,16.89974 7.2871094,16.703125 7.0904943,16.50651 6.9722644,16.25115 6.9589844,16.025391 6.9457044,15.799631 6.99222,15.581999 7.2871094,15.287109 L 15.777344,6.8066406 a 1,1 0 0 0 0,-1.4140625 1,1 0 0 0 -1.414063,0 L 5.8730469,13.873047 c -0.6484426,0.648442 -0.9558347,1.493 -0.9101563,2.269531 0.045679,0.776531 0.399272,1.463725 0.9101563,1.974609 0.5108842,0.510885 1.1980784,0.864478 1.9746093,0.910157 0.776531,0.04568 1.6210887,-0.261714 2.2695318,-0.910157 L 19.316406,8.9277344 C 20.436515,7.8076258 20.920861,6.4319731 20.845703,5.1542969 20.770545,3.8766207 20.18104,2.7181495 19.316406,1.8535156 18.451772,0.98888172 17.293301,0.39937645 16.015625,0.32421875 Z"
     id="path2" />
</svg>
